# xmcd
#
# Track frame offsets:
#	150
#	16330
#	33278
#	47655
#	65063
#	84504
#	104132
#	116072
#	133811
#	149663
#	163736
#	179685
#	191306
#	207630
#	220845
#	236300
#	250625
#	264032
#	283340
#	313351
#
# Disc length: 4440 seconds
#
# Revision: 1
# Processed by: cddbd v1.4PL0 Copyright (c) Steve Scherf et al.
# Submitted via: EasyCDDAExtractor 5.1.0
#
DISCID=37115614
DTITLE=KENNY ROGERS - COUNTRY STANDARDS
DYEAR=1900
DGENRE=Country
TTITLE0=GREEN GREEN GRASS OF HOME
TTITLE1=DESPERADO
TTITLE2=TOU NEEDED ME (WITH DOTTIE WEST)
TTITLE3=LAY DOWN BESIDE ME
TTITLE4=SWEET MUSIC MAN
TTITLE5=COWARD OF THE COUNTY
TTITLE6=BLAZE OF GLORY
TTITLE7=SOMETHINGS BURNING
TTITLE8=THE GAMBLER
TTITLE9=THE SON OF HICKORY HOLLERS TRAMP
TTITLE10=JUST THE WAY YOU ARE (WITH DOTTIE WEST)
TTITLE11=BABY I'M A WANT YOU (WITH DOTTIE WEST)
TTITLE12=LOVE WILL TURN YOU AROUND
TTITLE13=TOGETHER AGAIN
TTITLE14=LET IT BE (WITH DOTTIE WEST)
TTITLE15=ANOTHE SOMEBODY DONE SOMEBODY WRONG SONG
TTITLE16=PUTTING IN OVERTIME AT HOME
TTITLE17=ABRAHAM MARTIN AND JOHN
TTITLE18=YOU'VE LOST THAT LOVING FEELING (WITH DOTTIE WEST)
TTITLE19=UNLNOWN
EXTD=
EXTT0=
EXTT1=
EXTT2=
EXTT3=
EXTT4=
EXTT5=
EXTT6=
EXTT7=
EXTT8=
EXTT9=
EXTT10=
EXTT11=
EXTT12=
EXTT13=
EXTT14=
EXTT15=
EXTT16=
EXTT17=
EXTT18=
EXTT19=
PLAYORDER=
